<?xml version="1.0"?>
<svg xmlns="http://www.w3.org/2000/svg" xmlns:xlink="http://www.w3.org/1999/xlink" xmlns:svgjs="http://svgjs.com/svgjs" version="1.1" width="512" height="512" x="0" y="0" viewBox="0 0 512 512" style="enable-background:new 0 0 512 512" xml:space="preserve" class=""><g><g xmlns="http://www.w3.org/2000/svg"><path d="m481.095 430.616h-15.453l-204.052-19-215.231 19h-15.454c-17.068 0-30.905-13.837-30.905-30.906v-287.42c0-17.069 13.837-30.905 30.905-30.905h450.189c17.069 0 30.905 13.837 30.905 30.905v287.42c.001 17.069-13.836 30.906-30.904 30.906z" fill="#4a7dda" data-original="#da4a54" style="" class=""/><path d="m512 112.29v287.42c0 17.07-13.835 30.905-30.905 30.905h-30.905c17.07 0 30.905-13.835 30.905-30.905v-287.42c0-17.07-13.835-30.905-30.905-30.905h30.905c17.07-.001 30.905 13.835 30.905 30.905z" fill="#3b54d2" data-original="#d82e3d" style="" class=""/><path d="m455.34 317.296h-398.68c-5.69 0-10.302-4.612-10.302-10.302v-168.95c0-5.69 4.612-10.302 10.302-10.302h398.68c5.69 0 10.302 4.612 10.302 10.302v168.95c0 5.69-4.612 10.302-10.302 10.302z" fill="#83d2ff" data-original="#ffe183" style="" class=""/><path d="m418.258 363.654h-324.516c-10.046 0-19.174 5.841-23.384 14.962l-24 52h419.284l-24-52c-4.21-9.121-13.339-14.962-23.384-14.962z" fill="#f9f6f9" data-original="#f9f6f9" style="" class=""/><path d="m371.541 158.648h-230.728c-.612 2.607 44.687 40.352 44.687 40.352l.5 49.5s-44.704 34.864-45.895 37.89h230.761c3.863-1.288-44.365-38.89-44.365-38.89l.352-48.148c-.001 0 48.712-39.803 44.688-40.704z" fill="#6280ed" data-original="#edb762" style="" class=""/><path d="m141.135 286.39c-35.275 0-63.871-28.596-63.871-63.871 0-35.275 28.596-63.871 63.871-63.871 35.275 0 63.871 28.596 63.871 63.871 0 35.275-28.596 63.871-63.871 63.871z" fill="#544f57" data-original="#544f57" style="" class=""/><path d="m205.006 222.519c0 17.637-7.149 33.605-18.708 45.163-11.559 11.559-27.527 18.708-45.163 18.708-5.326 0-10.508-.649-15.453-1.885 11.435-2.843 21.644-8.757 29.711-16.823 11.559-11.559 18.708-27.526 18.708-45.163s-7.149-33.605-18.708-45.163c-8.066-8.066-18.276-13.98-29.711-16.823 4.945-1.236 10.127-1.885 15.453-1.885 17.637 0 33.604 7.149 45.163 18.708s18.708 27.526 18.708 45.163z" fill="#454045" data-original="#454045" style="" class=""/><path d="m141.135 255.485c-18.207 0-32.966-14.759-32.966-32.966 0-18.206 14.759-32.966 32.966-32.966 18.206 0 32.966 14.759 32.966 32.966 0 18.207-14.76 32.966-32.966 32.966z" fill="#ffffff" data-original="#ffffff" style="" class=""/><path d="m370.865 286.39c-35.275 0-63.871-28.596-63.871-63.871 0-35.275 28.596-63.871 63.871-63.871 35.275 0 63.871 28.596 63.871 63.871 0 35.275-28.596 63.871-63.871 63.871z" fill="#544f57" data-original="#544f57" style="" class=""/><path d="m434.736 222.519c0 17.637-7.149 33.605-18.708 45.163-11.559 11.559-27.527 18.708-45.163 18.708-5.326 0-10.508-.649-15.453-1.885 11.435-2.843 21.644-8.757 29.711-16.823 11.559-11.559 18.708-27.526 18.708-45.163s-7.149-33.605-18.708-45.163c-8.066-8.066-18.276-13.98-29.711-16.823 4.945-1.236 10.127-1.885 15.453-1.885 17.637 0 33.604 7.149 45.163 18.708s18.708 27.526 18.708 45.163z" fill="#454045" data-original="#454045" style="" class=""/><path d="m370.865 255.485c-18.207 0-32.966-14.759-32.966-32.966 0-18.206 14.759-32.966 32.966-32.966 18.206 0 32.966 14.759 32.966 32.966 0 18.207-14.759 32.966-32.966 32.966z" fill="#ffffff" data-original="#ffffff" style="" class=""/></g></g></svg>
